<svg width="250" height="56" viewBox="0 0 250 56" fill="none" xmlns="http://www.w3.org/2000/svg">
<g clip-path="url(#clip0_824_592)">
<path d="M57.7285 38.7352L62.9761 29.609C63.5505 28.6103 63.5505 27.3788 62.9761 26.3801L48.7337 1.61351C48.1593 0.614845 47.0975 0 45.9487 0H17.4604C16.3116 0 15.2498 0.614845 14.6754 1.61351L0.43123 26.3819C-0.143174 27.3806 -0.143174 28.6121 0.43123 29.6108L14.6754 54.3774C15.2498 55.3761 16.3116 55.9909 17.4604 55.9909H22.2858V33.3253C22.2858 31.9956 23.3585 30.9187 24.6831 30.9187H38.7967C40.1213 30.9187 41.194 31.9956 41.194 33.3253V55.9909H45.9487C47.0975 55.9909 48.1593 55.3761 48.7337 54.3774L51.8939 48.8838L55.9854 55.9982C55.9854 55.9982 58.0909 55.9818 58.0746 55.9982H67.6565L57.7285 38.7352V38.7352Z" fill="black"/>
<path d="M41.1596 7.76562H22.2496V26.7494H41.1596V7.76562Z" fill="#FFFB5F"/>
<path d="M84.1638 21.4614V37.5583H79.3367V21.4614C79.3367 21.4614 79.333 20.8447 79.9491 20.8447H83.555C84.1584 20.8447 84.1638 21.4614 84.1638 21.4614Z" fill="black"/>
<path d="M112.417 39.8886C111.715 40.7581 110.864 41.4202 109.863 41.8768C108.863 42.3316 107.763 42.5608 106.567 42.5608C104.958 42.5608 103.503 42.2133 102.204 41.5203C100.905 40.8254 99.4191 39.5993 97.7484 37.8385C95.7879 37.5893 94.0393 36.958 92.5027 35.943C90.9661 34.928 89.7684 33.6182 88.9131 32.0138C88.056 30.4094 87.6284 28.6322 87.6284 26.6858C87.6284 24.552 88.1394 22.6311 89.1596 20.923C90.1815 19.2149 91.5931 17.8742 93.3996 16.8992C95.2044 15.926 97.232 15.4385 99.4807 15.4385C101.729 15.4385 103.752 15.926 105.545 16.8992C107.341 17.8724 108.753 19.213 109.786 20.923C110.817 22.6311 111.333 24.552 111.333 26.6858C111.333 29.2125 110.626 31.4281 109.213 33.3345C107.8 35.2408 105.928 36.5651 103.596 37.3109C104.11 37.8494 104.612 38.2368 105.096 38.4751C105.58 38.7134 106.102 38.8317 106.658 38.8317C107.999 38.8317 109.175 38.2932 110.186 37.2164L112.415 39.8886H112.417ZM93.5863 30.2893C94.1734 31.3462 94.9833 32.1684 96.0162 32.7596C97.0472 33.349 98.2033 33.6455 99.4825 33.6455C100.762 33.6455 101.916 33.3508 102.949 32.7596C103.98 32.1703 104.79 31.3462 105.379 30.2893C105.968 29.2325 106.261 28.0319 106.261 26.6858C106.261 25.3397 105.968 24.1391 105.379 23.0822C104.792 22.0253 103.982 21.2031 102.949 20.6119C101.918 20.0225 100.762 19.726 99.4825 19.726C98.2033 19.726 97.0472 20.0207 96.0162 20.6119C94.9851 21.2013 94.1752 22.0253 93.5863 23.0822C92.9992 24.1391 92.7038 25.3397 92.7038 26.6858C92.7038 28.0319 92.9974 29.2325 93.5863 30.2893Z" fill="black"/>
<path d="M131.54 20.8466V37.5602H126.96V35.5719C126.32 36.2977 125.557 36.8507 124.669 37.2345C123.781 37.6184 122.823 37.8094 121.792 37.8094C119.605 37.8094 117.873 37.1781 116.593 35.9139C115.314 34.6515 114.674 32.776 114.674 30.2912V20.8466H119.501V29.5763C119.501 32.2685 120.625 33.6146 122.875 33.6146C124.03 33.6146 124.959 33.2362 125.66 32.4813C126.362 31.7264 126.713 30.6022 126.713 29.1106V20.8466H131.54V20.8466Z" fill="black"/>
<path d="M79.3367 13.4393H84.1638V18.2562H79.3367V13.4393Z" fill="black"/>
<path d="M156.08 36.7526C155.606 37.1055 155.022 37.3692 154.332 37.5457C153.64 37.7221 152.913 37.8094 152.15 37.8094C150.17 37.8094 148.638 37.3019 147.555 36.2869C146.471 35.2718 145.93 33.782 145.93 31.8138V24.9486H143.362V21.2214H145.93V17.1521H150.757V21.2214H154.903V24.9486H150.757V31.7519C150.757 32.4559 150.938 32.9998 151.299 33.3836C151.659 33.7675 152.17 33.9585 152.83 33.9585C153.592 33.9585 154.243 33.7511 154.779 33.3363L156.079 36.7544L156.08 36.7526Z" fill="black"/>
<path d="M179.011 15.8132V37.5602H174.896L164.097 24.3574V37.5602H159.146V15.8132H163.292L174.061 29.016V15.8132H179.011V15.8132Z" fill="black"/>
<path d="M187.011 36.7051C185.618 35.9702 184.531 34.9497 183.746 33.6455C182.961 32.3412 182.57 30.8605 182.57 29.2033C182.57 27.5461 182.961 26.0654 183.746 24.7611C184.531 23.4569 185.618 22.4364 187.011 21.7015C188.403 20.9666 189.977 20.5991 191.73 20.5991C193.482 20.5991 195.051 20.9666 196.434 21.7015C197.816 22.4364 198.898 23.4569 199.682 24.7611C200.467 26.0654 200.858 27.5461 200.858 29.2033C200.858 30.8605 200.467 32.3412 199.682 33.6455C198.898 34.9497 197.814 35.9702 196.434 36.7051C195.051 37.44 193.484 37.8075 191.73 37.8075C189.976 37.8075 188.403 37.44 187.011 36.7051V36.7051ZM194.779 32.574C195.573 31.7355 195.97 30.6113 195.97 29.2033C195.97 27.7954 195.573 26.6712 194.779 25.8326C193.986 24.994 192.969 24.5738 191.731 24.5738C190.494 24.5738 189.472 24.994 188.667 25.8326C187.863 26.6712 187.461 27.7954 187.461 29.2033C187.461 30.6113 187.863 31.7355 188.667 32.574C189.472 33.4126 190.494 33.8328 191.731 33.8328C192.969 33.8328 193.986 33.4126 194.779 32.574Z" fill="black"/>
<path d="M214.815 36.7526C214.34 37.1055 213.756 37.3692 213.066 37.5457C212.374 37.7221 211.647 37.8094 210.884 37.8094C208.904 37.8094 207.373 37.3019 206.289 36.2869C205.206 35.2718 204.666 33.782 204.666 31.8138V24.9486H202.096V21.2214H204.666V17.1521H209.493V21.2214H213.639V24.9486H209.493V31.7519C209.493 32.4559 209.674 32.9998 210.035 33.3836C210.395 33.7675 210.906 33.9585 211.566 33.9585C212.329 33.9585 212.979 33.7511 213.515 33.3363L214.815 36.7544V36.7526Z" fill="black"/>
<path d="M233.228 30.5695H220.633C220.859 31.6046 221.396 32.4232 222.242 33.0235C223.088 33.6237 224.139 33.9239 225.399 33.9239C226.265 33.9239 227.033 33.7947 227.703 33.5346C228.374 33.2763 228.997 32.867 229.575 32.3067L232.143 35.1026C230.575 36.9035 228.285 37.8058 225.274 37.8058C223.396 37.8058 221.735 37.4383 220.291 36.7034C218.846 35.9685 217.732 34.948 216.949 33.6438C216.165 32.3395 215.773 30.8588 215.773 29.2016C215.773 27.5444 216.159 26.091 216.933 24.774C217.707 23.4588 218.768 22.4347 220.12 21.6979C221.472 20.963 222.983 20.5956 224.654 20.5956C226.324 20.5956 227.758 20.9485 229.079 21.6525C230.398 22.3564 231.436 23.366 232.188 24.6812C232.942 25.9964 233.317 27.5244 233.317 29.2634C233.317 29.3253 233.286 29.76 233.225 30.5677L233.228 30.5695ZM221.934 25.1942C221.191 25.8163 220.738 26.6658 220.571 27.7409H228.772C228.608 26.684 228.153 25.8418 227.412 25.2087C226.669 24.5775 225.761 24.261 224.688 24.261C223.616 24.261 222.677 24.5721 221.934 25.1924V25.1942Z" fill="black"/>
<path d="M238.086 37.2946C236.765 36.9526 235.714 36.5233 234.93 36.0049L236.539 32.525C237.282 33.0016 238.178 33.3909 239.231 33.6892C240.284 33.9894 241.315 34.1403 242.326 34.1403C244.368 34.1403 245.39 33.6328 245.39 32.6178C245.39 32.1412 245.111 31.7992 244.555 31.5918C243.999 31.3845 243.142 31.208 241.985 31.0643C240.625 30.8569 239.499 30.6186 238.613 30.3494C237.725 30.0802 236.957 29.6036 236.308 28.9196C235.658 28.2357 235.334 27.2625 235.334 26C235.334 24.9431 235.638 24.0063 236.247 23.1877C236.856 22.3692 237.742 21.7325 238.909 21.2777C240.074 20.823 241.451 20.5938 243.04 20.5938C244.216 20.5938 245.387 20.7229 246.552 20.9812C247.717 21.2413 248.683 21.5979 249.446 22.0526L247.836 25.5016C246.371 24.6739 244.772 24.2592 243.04 24.2592C242.009 24.2592 241.235 24.4047 240.719 24.6939C240.202 24.985 239.945 25.3579 239.945 25.8127C239.945 26.3311 240.224 26.6931 240.781 26.9005C241.339 27.1078 242.225 27.3043 243.442 27.4898C244.803 27.7172 245.918 27.961 246.784 28.2193C247.65 28.4794 248.404 28.9487 249.043 29.6327C249.683 30.3167 250.002 31.268 250.002 32.4905C250.002 33.5255 249.692 34.4478 249.074 35.2554C248.454 36.0631 247.552 36.6907 246.367 37.1345C245.18 37.5802 243.772 37.8021 242.143 37.8021C240.761 37.8021 239.409 37.6311 238.09 37.2892L238.086 37.2946Z" fill="black"/>
<path d="M140.858 21.4614V37.5583H136.031V21.4614C136.031 21.4614 136.027 20.8447 136.643 20.8447H140.249C140.852 20.8447 140.858 21.4614 140.858 21.4614Z" fill="black"/>
<path d="M136.031 13.4393H140.858V18.2562H136.031V13.4393Z" fill="black"/>
</g>
<defs>
<clipPath id="clip0_824_592">
<rect width="250" height="56" fill="white"/>
</clipPath>
</defs>
</svg>
