<svg width="24" height="24" viewBox="0 0 24 24" fill="none" xmlns="http://www.w3.org/2000/svg">
<path d="M1 17C1 19.7614 3.23858 22 6 22L18 22C20.7614 22 23 19.7614 23 17L23 14C23 13.4477 22.5523 13 22 13L2 13C1.44772 13 1 13.4477 1 14L1 17Z" stroke="#121212"/>
<path d="M17 22V24M7 22V24" stroke="#121212"/>
<path d="M9 5.5H8.5V5V4.5C8.5 3.39543 9.39543 2.5 10.5 2.5C11.6046 2.5 12.5 3.39543 12.5 4.5V5V5.5H12H9Z" stroke="#121212"/>
<path d="M23 16H1" stroke="#121212"/>
<path d="M9 3H5.5C4.39543 3 3.5 3.89543 3.5 5V13" stroke="#121212"/>
</svg>
