<svg width="50" height="50" viewBox="0 0 50 50" fill="none" xmlns="http://www.w3.org/2000/svg">
<circle cx="25" cy="25" r="24.5" stroke="white"/>
<path d="M34.2913 17.6118C33.7805 17.1008 33.1741 16.6955 32.5066 16.4189C31.8392 16.1423 31.1238 16 30.4013 16C29.6788 16 28.9634 16.1423 28.2959 16.4189C27.6285 16.6955 27.022 17.1008 26.5113 17.6118L25.4513 18.6718L24.3913 17.6118C23.3596 16.5801 21.9603 16.0005 20.5013 16.0005C19.0423 16.0005 17.643 16.5801 16.6113 17.6118C15.5796 18.6435 15 20.0428 15 21.5018C15 22.9609 15.5796 24.3601 16.6113 25.3918L17.6713 26.4518L25.4513 34.2318L33.2313 26.4518L34.2913 25.3918C34.8023 24.8811 35.2076 24.2746 35.4842 23.6072C35.7608 22.9397 35.9031 22.2243 35.9031 21.5018C35.9031 20.7793 35.7608 20.0639 35.4842 19.3965C35.2076 18.729 34.8023 18.1226 34.2913 17.6118V17.6118Z" stroke="white" stroke-linecap="round" stroke-linejoin="round"/>
</svg>
