<svg width="34" height="22" viewBox="0 0 34 22" fill="none" xmlns="http://www.w3.org/2000/svg">
<g clip-path="url(#clip0_844_10950)">
<path d="M20.9704 11.7356V14.6418H18.0641V11.7356H20.9704ZM18.0819 11.0765C18.2368 9.55747 19.4538 8.34287 20.9704 8.18796V11.0765H18.0819ZM24.5357 11.7356V14.6418H21.6295V11.7356H24.5357ZM21.6295 11.0765V8.18796C23.1485 8.34287 24.3631 9.55747 24.518 11.0765H21.6295ZM33.4484 12.146L21.2999 0L15.886 5.41391V3.57079H13.4593V7.84065L9.12183 12.1776H11.0315V21.9906H31.5392V12.149L33.4484 12.146Z" fill="#A3291E"/>
<path d="M1.13463 12.1826H0.493286V22.0001H1.13463V12.1826Z" fill="#A3291E"/>
<path d="M8.04138 13.3174V12.676H-5.91278e-05V13.3174H8.04138Z" fill="#A3291E"/>
<path d="M8.04138 18.004V14.3533H2.17064V18.004H8.04138Z" fill="#A3291E"/>
<path d="M8.05383 18.004V14.3533H2.18309V18.004H8.05383Z" fill="#A3291E"/>
<path d="M3.51528 13.7125C3.58353 13.7125 3.63885 13.6571 3.63885 13.5889C3.63885 13.5207 3.58353 13.4653 3.51528 13.4653C3.44704 13.4653 3.39172 13.5207 3.39172 13.5889C3.39172 13.6571 3.44704 13.7125 3.51528 13.7125Z" fill="#A3291E"/>
<path d="M3.51528 14.1565C3.58353 14.1565 3.63885 14.1012 3.63885 14.033C3.63885 13.9647 3.58353 13.9094 3.51528 13.9094C3.44704 13.9094 3.39172 13.9647 3.39172 14.033C3.39172 14.1012 3.44704 14.1565 3.51528 14.1565Z" fill="#A3291E"/>
<path d="M6.72195 13.7125C6.79019 13.7125 6.84551 13.6571 6.84551 13.5889C6.84551 13.5207 6.79019 13.4653 6.72195 13.4653C6.65371 13.4653 6.59839 13.5207 6.59839 13.5889C6.59839 13.6571 6.65371 13.7125 6.72195 13.7125Z" fill="#A3291E"/>
<path d="M6.72195 14.1565C6.79019 14.1565 6.84551 14.1012 6.84551 14.033C6.84551 13.9647 6.79019 13.9094 6.72195 13.9094C6.65371 13.9094 6.59839 13.9647 6.59839 14.033C6.59839 14.1012 6.65371 14.1565 6.72195 14.1565Z" fill="#A3291E"/>
</g>
<defs>
<clipPath id="clip0_844_10950">
<rect width="33.4484" height="22" fill="white"/>
</clipPath>
</defs>
</svg>
