<svg width="176" height="14" viewBox="0 0 176 14" fill="none" xmlns="http://www.w3.org/2000/svg">
<path d="M20.5 12.5V11.5" stroke="#D9D9D9" stroke-linecap="round"/>
<path d="M18.5 12.5V11.5" stroke="#D9D9D9" stroke-linecap="round"/>
<path d="M16.5 12.5V11.5" stroke="#D9D9D9" stroke-linecap="round"/>
<line x1="14.5" y1="13.5" x2="14.5" y2="11.5" stroke="#D9D9D9" stroke-linecap="round"/>
<path d="M28.5 12.5V11.5" stroke="#D9D9D9" stroke-linecap="round"/>
<path d="M26.5 12.5V11.5" stroke="#D9D9D9" stroke-linecap="round"/>
<path d="M24.5 12.5V11.5" stroke="#D9D9D9" stroke-linecap="round"/>
<line x1="22.5" y1="13.5" x2="22.5" y2="11.5" stroke="#D9D9D9" stroke-linecap="round"/>
<path d="M36.5 12.5V11.5" stroke="#D9D9D9" stroke-linecap="round"/>
<path d="M34.5 12.5V11.5" stroke="#D9D9D9" stroke-linecap="round"/>
<path d="M32.5 12.5V11.5" stroke="#D9D9D9" stroke-linecap="round"/>
<line x1="30.5" y1="13.5" x2="30.5" y2="11.5" stroke="#D9D9D9" stroke-linecap="round"/>
<path d="M44.5 12.5V11.5" stroke="#D9D9D9" stroke-linecap="round"/>
<path d="M42.5 12.5V11.5" stroke="#D9D9D9" stroke-linecap="round"/>
<path d="M40.5 12.5V11.5" stroke="#D9D9D9" stroke-linecap="round"/>
<line x1="38.5" y1="13.5" x2="38.5" y2="11.5" stroke="#D9D9D9" stroke-linecap="round"/>
<path d="M52.5 12.5V11.5" stroke="#D9D9D9" stroke-linecap="round"/>
<path d="M50.5 12.5V11.5" stroke="#D9D9D9" stroke-linecap="round"/>
<path d="M48.5 12.5V11.5" stroke="#D9D9D9" stroke-linecap="round"/>
<line x1="46.5" y1="13.5" x2="46.5" y2="11.5" stroke="#D9D9D9" stroke-linecap="round"/>
<path d="M60.5 12.5V11.5" stroke="#D9D9D9" stroke-linecap="round"/>
<path d="M58.5 12.5V11.5" stroke="#D9D9D9" stroke-linecap="round"/>
<path d="M56.5 12.5V11.5" stroke="#D9D9D9" stroke-linecap="round"/>
<line x1="54.5" y1="13.5" x2="54.5" y2="11.5" stroke="#D9D9D9" stroke-linecap="round"/>
<path d="M68.5 12.5V11.5" stroke="#D9D9D9" stroke-linecap="round"/>
<path d="M66.5 12.5V11.5" stroke="#D9D9D9" stroke-linecap="round"/>
<path d="M64.5 12.5V11.5" stroke="#D9D9D9" stroke-linecap="round"/>
<line x1="62.5" y1="13.5" x2="62.5" y2="11.5" stroke="#D9D9D9" stroke-linecap="round"/>
<path d="M76.5 12.5V11.5" stroke="#D9D9D9" stroke-linecap="round"/>
<path d="M74.5 12.5V11.5" stroke="#D9D9D9" stroke-linecap="round"/>
<path d="M72.5 12.5V11.5" stroke="#D9D9D9" stroke-linecap="round"/>
<line x1="70.5" y1="13.5" x2="70.5" y2="11.5" stroke="#D9D9D9" stroke-linecap="round"/>
<path d="M84.5 12.5V11.5" stroke="#D9D9D9" stroke-linecap="round"/>
<path d="M82.5 12.5V11.5" stroke="#D9D9D9" stroke-linecap="round"/>
<path d="M80.5 12.5V11.5" stroke="#D9D9D9" stroke-linecap="round"/>
<line x1="78.5" y1="13.5" x2="78.5" y2="11.5" stroke="#D9D9D9" stroke-linecap="round"/>
<path d="M92.5 12.5V11.5" stroke="#D9D9D9" stroke-linecap="round"/>
<path d="M90.5 12.5V11.5" stroke="#D9D9D9" stroke-linecap="round"/>
<path d="M88.5 12.5V11.5" stroke="#D9D9D9" stroke-linecap="round"/>
<line x1="86.5" y1="13.5" x2="86.5" y2="11.5" stroke="#D9D9D9" stroke-linecap="round"/>
<path d="M100.5 12.5V11.5" stroke="#D9D9D9" stroke-linecap="round"/>
<path d="M98.5 12.5V11.5" stroke="#D9D9D9" stroke-linecap="round"/>
<path d="M96.5 12.5V11.5" stroke="#D9D9D9" stroke-linecap="round"/>
<line x1="94.5" y1="13.5" x2="94.5" y2="11.5" stroke="#D9D9D9" stroke-linecap="round"/>
<path d="M108.5 12.5V11.5" stroke="#D9D9D9" stroke-linecap="round"/>
<path d="M106.5 12.5V11.5" stroke="#D9D9D9" stroke-linecap="round"/>
<path d="M104.5 12.5V11.5" stroke="#D9D9D9" stroke-linecap="round"/>
<line x1="102.5" y1="13.5" x2="102.5" y2="11.5" stroke="#D9D9D9" stroke-linecap="round"/>
<path d="M116.5 12.5V11.5" stroke="#D9D9D9" stroke-linecap="round"/>
<path d="M114.5 12.5V11.5" stroke="#D9D9D9" stroke-linecap="round"/>
<path d="M112.5 12.5V11.5" stroke="#D9D9D9" stroke-linecap="round"/>
<line x1="110.5" y1="13.5" x2="110.5" y2="11.5" stroke="#D9D9D9" stroke-linecap="round"/>
<path d="M124.5 12.5V11.5" stroke="#D9D9D9" stroke-linecap="round"/>
<path d="M122.5 12.5V11.5" stroke="#D9D9D9" stroke-linecap="round"/>
<path d="M120.5 12.5V11.5" stroke="#D9D9D9" stroke-linecap="round"/>
<line x1="118.5" y1="13.5" x2="118.5" y2="11.5" stroke="#D9D9D9" stroke-linecap="round"/>
<path d="M132.5 12.5V11.5" stroke="#D9D9D9" stroke-linecap="round"/>
<path d="M130.5 12.5V11.5" stroke="#D9D9D9" stroke-linecap="round"/>
<path d="M128.5 12.5V11.5" stroke="#D9D9D9" stroke-linecap="round"/>
<line x1="126.5" y1="13.5" x2="126.5" y2="11.5" stroke="#D9D9D9" stroke-linecap="round"/>
<path d="M140.5 12.5V11.5" stroke="#D9D9D9" stroke-linecap="round"/>
<path d="M138.5 12.5V11.5" stroke="#D9D9D9" stroke-linecap="round"/>
<path d="M136.5 12.5V11.5" stroke="#D9D9D9" stroke-linecap="round"/>
<line x1="134.5" y1="13.5" x2="134.5" y2="11.5" stroke="#D9D9D9" stroke-linecap="round"/>
<path d="M148.5 12.5V11.5" stroke="#D9D9D9" stroke-linecap="round"/>
<path d="M146.5 12.5V11.5" stroke="#D9D9D9" stroke-linecap="round"/>
<path d="M144.5 12.5V11.5" stroke="#D9D9D9" stroke-linecap="round"/>
<line x1="142.5" y1="13.5" x2="142.5" y2="11.5" stroke="#D9D9D9" stroke-linecap="round"/>
<line x1="150.5" y1="13.5" x2="150.5" y2="11.5" stroke="#D9D9D9" stroke-linecap="round"/>
<mask id="path-70-inside-1_1092_5691" fill="white">
<path fill-rule="evenodd" clip-rule="evenodd" d="M13.3264 10C12.2029 12.3649 9.7924 14 7 14C3.13401 14 0 10.866 0 7C0 3.13401 3.13401 0 7 0C9.7924 0 12.2029 1.63505 13.3264 4H149C150.657 4 152 5.34315 152 7C152 8.65685 150.657 10 149 10H13.3264Z"/>
</mask>
<path fill-rule="evenodd" clip-rule="evenodd" d="M13.3264 10C12.2029 12.3649 9.7924 14 7 14C3.13401 14 0 10.866 0 7C0 3.13401 3.13401 0 7 0C9.7924 0 12.2029 1.63505 13.3264 4H149C150.657 4 152 5.34315 152 7C152 8.65685 150.657 10 149 10H13.3264Z" fill="url(#paint0_linear_1092_5691)"/>
<path d="M13.3264 10V9H12.6943L12.4231 9.57091L13.3264 10ZM13.3264 4L12.4231 4.42909L12.6943 5H13.3264V4ZM12.4231 9.57091C11.459 11.6003 9.39198 13 7 13V15C10.1928 15 12.9468 13.1296 14.2296 10.4291L12.4231 9.57091ZM7 13C3.68629 13 1 10.3137 1 7H-1C-1 11.4183 2.58172 15 7 15V13ZM1 7C1 3.68629 3.68629 1 7 1V-1C2.58172 -1 -1 2.58172 -1 7H1ZM7 1C9.39198 1 11.459 2.39967 12.4231 4.42909L14.2296 3.57091C12.9468 0.870434 10.1928 -1 7 -1V1ZM13.3264 5H149V3H13.3264V5ZM149 5C150.105 5 151 5.89543 151 7H153C153 4.79086 151.209 3 149 3V5ZM151 7C151 8.10457 150.105 9 149 9V11C151.209 11 153 9.20914 153 7H151ZM149 9H13.3264V11H149V9Z" fill="#4D4D4D" mask="url(#path-70-inside-1_1092_5691)"/>
<mask id="path-72-inside-2_1092_5691" fill="white">
<path fill-rule="evenodd" clip-rule="evenodd" d="M117 4V10H149C150.657 10 152 8.65685 152 7C152 5.34315 150.657 4 149 4H117Z"/>
</mask>
<path fill-rule="evenodd" clip-rule="evenodd" d="M117 4V10H149C150.657 10 152 8.65685 152 7C152 5.34315 150.657 4 149 4H117Z" fill="white"/>
<path d="M117 4V3H116V4H117ZM117 10H116V11H117V10ZM116 4V10H118V4H116ZM149 9H117V11H149V9ZM151 7C151 8.10457 150.105 9 149 9V11C151.209 11 153 9.20914 153 7H151ZM149 5C150.105 5 151 5.89543 151 7H153C153 4.79086 151.209 3 149 3V5ZM117 5H149V3H117V5Z" fill="#4D4D4D" mask="url(#path-72-inside-2_1092_5691)"/>
<defs>
<linearGradient id="paint0_linear_1092_5691" x1="0" y1="7.875" x2="152" y2="7.875" gradientUnits="userSpaceOnUse">
<stop stop-color="#50A0FF"/>
<stop offset="1" stop-color="#E41B00"/>
</linearGradient>
</defs>
</svg>
