<svg width="24" height="26" viewBox="0 0 24 26" fill="none" xmlns="http://www.w3.org/2000/svg">
<path fill-rule="evenodd" clip-rule="evenodd" d="M12 13C9.79193 13 8 11.2081 8 9C8 6.79193 9.79193 5 12 5C14.2081 5 16 6.79193 16 9C16 11.2081 14.2081 13 12 13ZM10.2609 9C10.2609 9.96273 11.0404 10.7391 12 10.7391C12.9596 10.7391 13.7391 9.95963 13.7391 9C13.7391 8.04037 12.9596 7.26087 12 7.26087C11.0404 7.26087 10.2609 8.04037 10.2609 9Z" fill="#121212"/>
<path fill-rule="evenodd" clip-rule="evenodd" d="M0 10.9537L7.13545 2H16.8646L24 10.9537L12.0014 26L0 10.9537ZM17.513 7.69319C14.4822 3.87353 9.51779 3.87353 6.48703 7.69319L3.89338 10.9464L6.48703 14.1997C9.51779 18.0194 14.4822 18.0194 17.513 14.1997L20.1066 10.9464L17.513 7.69319V7.69319Z" fill="gray"/>
</svg>
