<svg width="24" height="24" viewBox="0 0 24 24" fill="none" xmlns="http://www.w3.org/2000/svg">
<path d="M12 0C5.37333 0 0 5.37333 0 12C0 18.6267 5.37333 24 12 24C18.6267 24 24 18.6267 24 12C24 5.37333 18.6293 0 12 0ZM5.92 12.4027L5.97067 12.32L9.09333 7.43467C9.13867 7.36533 9.248 7.37333 9.28 7.448C9.8 8.616 10.2533 10.072 10.04 10.976C9.952 11.3493 9.704 11.8507 9.42667 12.3173C9.38933 12.384 9.352 12.4507 9.30933 12.5173C9.29067 12.5467 9.256 12.5627 9.22133 12.5627H6.01333C5.928 12.5627 5.87733 12.4693 5.92267 12.4L5.92 12.4027ZM19.832 14.0827C19.832 14.128 19.8053 14.1653 19.768 14.184C19.5253 14.288 18.6987 14.6693 18.3547 15.1467C17.4773 16.368 16.8053 18.1147 15.3067 18.1147H9.05333C6.83467 18.1147 5.04 16.312 5.04 14.088V14.016C5.04 13.9573 5.088 13.9093 5.14933 13.9093H8.63467C8.704 13.9093 8.75467 13.9707 8.74933 14.04C8.72267 14.2667 8.76533 14.4987 8.87467 14.7093C9.08 15.1307 9.512 15.392 9.97333 15.392H11.6987V14.0453H9.992C9.90667 14.0453 9.85333 13.944 9.904 13.872C9.92267 13.8427 9.94133 13.8133 9.96533 13.7813C10.1253 13.552 10.3573 13.1947 10.5867 12.7893C10.7413 12.5147 10.8933 12.224 11.016 11.9307C11.04 11.8773 11.0587 11.8213 11.08 11.7707C11.1147 11.6773 11.1467 11.5893 11.1707 11.5013C11.1947 11.4267 11.216 11.3493 11.2347 11.2773C11.2933 11.0267 11.3173 10.7627 11.3173 10.4907C11.3173 10.384 11.312 10.2693 11.304 10.1653C11.2987 10.048 11.2853 9.93067 11.2693 9.81333C11.2587 9.70933 11.24 9.608 11.2213 9.50133C11.1947 9.34667 11.1627 9.18933 11.1227 9.032L11.1093 8.97333C11.08 8.864 11.0533 8.76533 11.0213 8.656C10.9227 8.32 10.8133 7.992 10.6933 7.68267C10.6507 7.56 10.6027 7.44267 10.552 7.328C10.48 7.14933 10.4053 6.98933 10.3387 6.83733C10.3013 6.768 10.2747 6.70667 10.2453 6.64C10.2107 6.568 10.1787 6.496 10.1413 6.42667C10.1173 6.37333 10.088 6.32267 10.0693 6.27467L9.85867 5.88533C9.82933 5.832 9.87733 5.768 9.936 5.784L11.256 6.14133H11.2667L11.44 6.192L11.632 6.24533L11.7013 6.264V5.48267C11.7013 5.104 12.0027 4.79733 12.3813 4.79733C12.568 4.79733 12.7387 4.87467 12.8587 5C12.9813 5.12533 13.0587 5.296 13.0587 5.48533V6.648L13.2 6.68533C13.2 6.68533 13.2213 6.696 13.232 6.70133C13.2667 6.72533 13.3173 6.76267 13.3787 6.81067C13.4293 6.848 13.4827 6.896 13.544 6.94667C13.672 7.05067 13.824 7.18133 13.9893 7.33333C14.032 7.37067 14.0747 7.41067 14.1173 7.45067C14.3307 7.65067 14.5707 7.88267 14.8027 8.14133C14.8667 8.216 14.9307 8.288 14.9947 8.368C15.056 8.448 15.1253 8.52533 15.184 8.6C15.264 8.704 15.344 8.81067 15.4187 8.92533C15.4533 8.97867 15.4933 9.03467 15.5253 9.08533C15.6213 9.22667 15.704 9.37333 15.7813 9.52C15.816 9.58667 15.848 9.66133 15.8773 9.73333C15.9653 9.93067 16.0347 10.1307 16.08 10.3307C16.0933 10.3733 16.104 10.4187 16.1093 10.4613V10.472C16.1227 10.5307 16.128 10.592 16.1333 10.656C16.152 10.8587 16.144 11.0667 16.0987 11.272C16.08 11.3573 16.056 11.44 16.0267 11.528C15.9947 11.6107 15.9653 11.6987 15.928 11.7813C15.8533 11.952 15.768 12.1253 15.664 12.2827C15.6293 12.344 15.5893 12.4053 15.552 12.464C15.5093 12.5253 15.464 12.5867 15.424 12.6427C15.368 12.7173 15.312 12.7947 15.2507 12.864C15.1973 12.936 15.144 13.008 15.0853 13.072C15.0027 13.1707 14.9253 13.2613 14.84 13.3493C14.792 13.408 14.7387 13.4667 14.6827 13.52C14.6293 13.5813 14.576 13.632 14.528 13.68C14.4453 13.7627 14.376 13.8267 14.32 13.8827L14.184 14.0053C14.1653 14.024 14.1387 14.0347 14.112 14.0347H13.0613V15.3813H14.384C14.68 15.3813 14.96 15.2773 15.1867 15.0827C15.264 15.016 15.6027 14.7227 16.0027 14.28C16.016 14.264 16.0347 14.2533 16.0533 14.248L19.704 13.192C19.7733 13.1733 19.84 13.224 19.84 13.296V14.0693L19.832 14.0827Z" fill="gray"/>
</svg>
