<svg width="50" height="50" viewBox="0 0 50 50" fill="none" xmlns="http://www.w3.org/2000/svg">
<circle cx="25" cy="25" r="24.5" stroke="white"/>
<path d="M36 16.0101C35.0424 16.6855 33.9821 17.2022 32.86 17.5401C32.2577 16.8476 31.4573 16.3567 30.567 16.134C29.6767 15.9112 28.7395 15.9673 27.8821 16.2945C27.0247 16.6218 26.2884 17.2045 25.773 17.9638C25.2575 18.7231 24.9877 19.6224 25 20.5401V21.5401C23.2426 21.5856 21.5013 21.1959 19.931 20.4055C18.3607 19.6151 17.0103 18.4487 16 17.0101C16 17.0101 12 26.0101 21 30.0101C18.9405 31.408 16.4872 32.109 14 32.0101C23 37.0101 34 32.0101 34 20.5101C33.9991 20.2315 33.9723 19.9537 33.92 19.6801C34.9406 18.6735 35.6608 17.4028 36 16.0101V16.0101Z" stroke="white" stroke-linecap="round" stroke-linejoin="round"/>
</svg>
