<svg width="24" height="24" viewBox="0 0 24 24" fill="none" xmlns="http://www.w3.org/2000/svg">
<path d="M3.79242 15.7504L4.47299 3.5H20.527L21.2076 15.7504C21.3509 18.3298 19.2979 20.5 16.7145 20.5H8.28549C5.70211 20.5 3.64912 18.3298 3.79242 15.7504Z" stroke="#121212"/>
<path fill-rule="evenodd" clip-rule="evenodd" d="M7.07605 3C7.02603 3.32521 7 3.65929 7 4C7 7.31371 9.46243 10 12.5 10C15.5376 10 18 7.31371 18 4C18 3.65929 17.974 3.32521 17.924 3H16.9111C16.9693 3.32149 17 3.65569 17 4C17 6.84511 14.9052 9 12.5 9C10.0948 9 8 6.84511 8 4C8 3.65569 8.03068 3.32149 8.08888 3H7.07605Z" fill="#121212"/>
</svg>
