<svg width="26" height="24" viewBox="0 0 26 24" fill="none" xmlns="http://www.w3.org/2000/svg">
<path d="M24.9658 15.8585C25.4315 13.5288 21.0002 12.6626 20.2792 10.064C19.8808 8.62784 20.0225 7.80888 19.2728 6.47972C18.5232 5.15056 14.7815 3 10.861 3C3.66591 3 0.622166 6.61069 1.0372 9.31726M24.9658 15.8585C24.345 17.2026 21.2706 19.7116 14.7214 17.8299C8.17222 15.9481 1.49065 12.2743 1.0372 9.31726M24.9658 15.8585V18.8902C25.0659 19.8161 23.8843 21.7454 19.6634 21.9816C14.0605 22.2953 7.48126 18.515 4.05645 16.4858C1.67711 15.076 1.05223 13.3197 1.0372 12.6178V9.31726" stroke="#121212"/>
<path d="M17.0507 7.51227C15.4374 5.47979 12.9812 5.12269 10.1471 5.00746C8.78086 4.95191 6.81879 5.19352 5.11832 6.18113C2.197 7.8778 1.90632 9.41592 6.74612 12.0209C11.867 14.7772 15.5101 16 18.4169 16C21.7887 16 22.312 15.0267 21.8614 14.7261C16.6292 11.5915 17.85 8.60008 17.0507 7.51227Z" stroke="#121212"/>
<path d="M12.5 8.5C12.5 8.66958 12.3828 8.90853 12.0105 9.13191C11.6482 9.34932 11.1153 9.5 10.5 9.5C9.88468 9.5 9.35183 9.34932 8.98948 9.13191C8.61718 8.90853 8.5 8.66958 8.5 8.5C8.5 8.33042 8.61718 8.09147 8.98948 7.86809C9.35183 7.65068 9.88468 7.5 10.5 7.5C11.1153 7.5 11.6482 7.65068 12.0105 7.86809C12.3828 8.09147 12.5 8.33042 12.5 8.5Z" stroke="#121212"/>
</svg>
