<svg width="24" height="24" viewBox="0 0 24 24" fill="none" xmlns="http://www.w3.org/2000/svg">
<path d="M17.6102 6.10799C16.622 5.47566 15.9085 4.46434 15.6861 3.28531C15.638 3.03045 15.6116 2.76838 15.6116 2.5H12.4572L12.452 14.9021C12.399 16.2909 11.234 17.4056 9.80551 17.4056C9.36162 17.4056 8.94346 17.2968 8.57554 17.1066C7.73157 16.6708 7.15411 15.8028 7.15411 14.8041C7.15411 13.3697 8.34364 12.2027 9.80551 12.2027C10.0785 12.2027 10.3401 12.2468 10.5879 12.3229V9.16359C10.3315 9.12933 10.0711 9.10799 9.80551 9.10799C6.60453 9.10829 4 11.6635 4 14.8041C4 16.7312 4.98152 18.4365 6.47862 19.4676C7.42155 20.1171 8.5688 20.5 9.80582 20.5C13.0071 20.5 15.6116 17.9448 15.6116 14.8041V8.51533C16.8486 9.3866 18.3644 9.89992 20 9.89992V6.80525C19.119 6.80525 18.2983 6.54829 17.6102 6.10799Z" fill="#121212"/>
</svg>
