<svg width="24" height="24" viewBox="0 0 24 24" fill="none" xmlns="http://www.w3.org/2000/svg">
<path d="M18.3115 5.50888C17.1997 4.80628 16.397 3.6826 16.1468 2.37257C16.0927 2.08939 16.0631 1.7982 16.0631 1.5H12.5144L12.5085 15.2801C12.4489 16.8232 11.1382 18.0618 9.5312 18.0618C9.03182 18.0618 8.56139 17.9409 8.14749 17.7295C7.19801 17.2453 6.54837 16.2809 6.54837 15.1713C6.54837 13.5774 7.8866 12.2807 9.5312 12.2807C9.83827 12.2807 10.1326 12.3298 10.4114 12.4143V8.90399C10.1229 8.86593 9.83 8.84222 9.5312 8.84222C5.9301 8.84255 3 11.6817 3 15.1713C3 17.3125 4.10421 19.2072 5.78845 20.3529C6.84924 21.0746 8.1399 21.5 9.53154 21.5C13.133 21.5 16.0631 18.6609 16.0631 15.1713V8.1837C17.4547 9.15177 19.16 9.72213 21 9.72213V6.28361C20.0088 6.28361 19.0855 5.9981 18.3115 5.50888Z" fill="#121212"/>
</svg>
