<svg width="24" height="24" viewBox="0 0 24 24" fill="none" xmlns="http://www.w3.org/2000/svg">
<path d="M18.2596 8.5268C18.27 8.6805 18.27 8.8342 18.27 8.98932C18.27 13.7158 14.7615 19.1669 8.34621 19.1669V19.164C6.45111 19.1669 4.59537 18.6101 3 17.5604C3.27556 17.5944 3.55251 17.6114 3.83014 17.6121C5.40065 17.6136 6.92626 17.0731 8.16181 16.078C6.66935 16.0489 5.36059 15.0509 4.90339 13.594C5.4262 13.6974 5.9649 13.6761 6.47804 13.5323C4.8509 13.1952 3.68028 11.729 3.68028 10.0263V9.98094C4.1651 10.2579 4.70794 10.4116 5.26321 10.4286C3.73069 9.37818 3.2583 7.28728 4.18375 5.65253C5.95454 7.88721 8.56722 9.24572 11.3719 9.38951C11.0908 8.14715 11.4748 6.8453 12.3809 5.97197C13.7857 4.6177 15.995 4.68712 17.3155 6.12709C18.0966 5.96914 18.8453 5.67519 19.5304 5.25871C19.27 6.08671 18.7251 6.79005 17.9972 7.23699C18.6885 7.15341 19.3639 6.96359 20 6.67389C19.5317 7.39352 18.9419 8.02037 18.2596 8.5268Z" fill="#121212"/>
</svg>
