<svg width="24" height="24" viewBox="0 0 24 24" fill="none" xmlns="http://www.w3.org/2000/svg">
<path d="M19.0548 7.98316C19.0664 8.15675 19.0664 8.33034 19.0664 8.50553C19.0664 13.8436 15.1452 20 7.97518 20V19.9968C5.85712 20 3.78306 19.3712 2 18.1857C2.30798 18.2241 2.61751 18.2433 2.92781 18.2441C4.68308 18.2457 6.38818 17.6353 7.76908 16.5114C6.10104 16.4786 4.63831 15.3515 4.12732 13.706C4.71164 13.8228 5.31371 13.7988 5.88722 13.6364C4.06866 13.2556 2.76031 11.5997 2.76031 9.67665V9.62545C3.30217 9.93824 3.90888 10.1118 4.52947 10.131C2.81666 8.9447 2.28869 6.58325 3.32301 4.73696C5.30213 7.2608 8.22218 8.79511 11.3568 8.9575C11.0427 7.55439 11.4718 6.08408 12.4845 5.09774C14.0546 3.56824 16.5238 3.64663 17.9997 5.27293C18.8727 5.09454 19.7094 4.76256 20.4751 4.29219C20.1841 5.22733 19.5751 6.02168 18.7615 6.52645C19.5342 6.43206 20.2891 6.21767 21 5.89049C20.4767 6.70324 19.8175 7.41119 19.0548 7.98316Z" fill="#121212"/>
</svg>
